Coordinates
version=1
nRows=14
nColumns=40
inDegrees=yes

Units are S.I. units (second, meters, Newtons, ...)
Angles are in degrees.

endheader
time	pelvis_tilt	pelvis_list	pelvis_rotation	pelvis_tx	pelvis_ty	pelvis_tz	hip_flexion_r	hip_adduction_r	hip_rotation_r	knee_angle_r	knee_angle_r_beta	ankle_angle_r	subtalar_angle_r	mtp_angle_r	hip_flexion_l	hip_adduction_l	hip_rotation_l	knee_angle_l	knee_angle_l_beta	ankle_angle_l	subtalar_angle_l	mtp_angle_l	lumbar_extension	lumbar_bending	lumbar_rotation	arm_flex_r	arm_add_r	arm_rot_r	elbow_flex_r	pro_sup_r	wrist_flex_r	wrist_dev_r	arm_flex_l	arm_add_l	arm_rot_l	elbow_flex_l	pro_sup_l	wrist_flex_l	wrist_dev_l
     57.83000000	     -3.82124250	     -3.65987481	     -1.19548911	      0.99630873	      0.93496324	      0.38873494	     29.69905820	     -5.21245324	     -5.21880522	     66.08089982	     66.08089982	      1.69844350	    -17.07307176	      3.59736471	     12.09234621	     -2.52738259	     -8.44082406	     19.30283141	     19.30283141	     13.34217569	    -11.16201078	      1.59993975	     -8.87343822	      6.17329982	      3.53350120	      5.36383663	    -11.44594100	     -6.44433069	     28.75901853	     46.34186037	      0.00000000	      0.00000000	     17.21044535	    -12.01265939	     -1.57680224	     52.01551102	     46.41863766	      0.00000000	      0.00000000
     57.84257143	     -3.80484061	     -3.79196812	     -1.50165066	      0.99519104	      0.93563230	      0.38877697	     30.68530568	     -4.88054099	     -5.34465914	     64.31798154	     64.31798154	      1.71551447	    -16.88048368	      3.31380585	     11.15849876	     -2.63981180	     -8.75309813	     18.57008141	     18.57008141	     13.49791925	    -10.86411440	      1.45767228	     -9.05988519	      6.32345232	      3.59032288	      3.61106123	    -11.60513620	     -6.58015179	     27.27698147	     46.40245911	      0.00000000	      0.00000000	     18.28038427	    -12.34636001	     -1.97250840	     53.65520282	     46.48693486	      0.00000000	      0.00000000
     57.85514286	     -3.80952719	     -3.91030905	     -1.78796959	      0.99407630	      0.93619128	      0.38876514	     31.53930049	     -4.55988744	     -5.48882867	     62.29704316	     62.29704316	      1.59022029	    -16.61267228	      2.89765156	     10.28032312	     -2.73182650	     -9.04375383	     17.88387280	     17.88387280	     13.60964019	    -10.58233701	      1.23654170	     -9.23173692	      6.47579822	      3.59482644	      1.98573344	    -11.71826443	     -6.84558975	     25.57514637	     46.48759576	      0.00000000	      0.00000000	     19.20729784	    -12.70858543	     -2.49958294	     55.63906084	     46.57163494	      0.00000000	      0.00000000
     57.86771429	     -3.79897622	     -4.02133238	     -2.07771225	      0.99302137	      0.93665012	      0.38882620	     32.22239747	     -4.21885132	     -5.63349593	     60.02106910	     60.02106910	      1.45096413	    -16.28356455	      2.51557332	      9.38359762	     -2.80827285	     -9.37022146	     17.18695821	     17.18695821	     13.73286697	    -10.30769704	      0.99934037	     -9.42471893	      6.62561705	      3.53620629	      0.49016938	    -11.83857615	     -7.20366197	     23.87741078	     46.58644266	      0.00000000	      0.00000000	     20.05755079	    -13.08524817	     -3.12732235	     57.67056710	     46.66502170	      0.00000000	      0.00000000
     57.88028571	     -3.83366476	     -4.17860449	     -2.33216872	      0.99196398	      0.93700961	      0.38891880	     32.76506366	     -3.83502821	     -5.85407786	     57.42971141	     57.42971141	      1.39229780	    -15.78019897	      2.37846159	      8.57409783	     -2.93444476	     -9.62598832	     16.53744294	     16.53744294	     13.86619702	    -10.02546181	      0.85048301	     -9.54999232	      6.81675534	      3.38505808	     -0.99876144	    -12.02560170	     -7.49528286	     22.59757179	     46.66260988	      0.00000000	      0.00000000	     20.89289815	    -13.41821534	     -3.66275355	     59.26305778	     46.74129444	      0.00000000	      0.00000000
     57.89285714	     -3.88558853	     -4.22852236	     -2.58069061	      0.99095959	      0.93709637	      0.38901402	     33.19770662	     -3.55140177	     -6.01279307	     54.56899767	     54.56899767	      1.15241012	    -15.24733287	      1.48861536	      7.77592237	     -2.96098891	    -10.04713214	     15.87106695	     15.87106695	     13.93806955	     -9.56623924	      0.33296918	     -9.66421563	      6.86589045	      3.09144603	     -2.11811953	    -12.08353431	     -8.35354840	     20.80041429	     46.83895945	      0.00000000	      0.00000000	     21.24092378	    -13.79731348	     -4.76100428	     62.07354053	     46.88482989	      0.00000000	      0.00000000
     57.90542857	     -3.95026501	     -4.30635233	     -2.79452455	      0.98993193	      0.93710007	      0.38918158	     33.45979198	     -3.24737533	     -6.23650563	     51.36533747	     51.36533747	      0.96006673	    -14.49950132	      0.79659139	      7.04073460	     -3.01170177	    -10.36838373	     15.27130377	     15.27130377	     14.04504803	     -9.18295622	      0.00309038	     -9.78004154	      6.97156328	      2.81263366	     -3.38045353	    -12.21947663	     -9.18754983	     19.70145176	     46.98682418	      0.00000000	      0.00000000	     21.80024762	    -14.18978508	     -5.68129461	     64.02257066	     47.00167579	      0.00000000	      0.00000000
     57.91800000	     -4.01848274	     -4.35950827	     -2.97107921	      0.98894387	      0.93695039	      0.38935774	     33.55157231	     -2.99083866	     -6.53068540	     47.84872555	     47.84872555	      0.86742972	    -13.46399792	      0.35137666	      6.34618863	     -3.04147286	    -10.70459342	     14.74010029	     14.74010029	     14.21208723	     -8.74365420	     -0.25522533	     -9.88510363	      7.06614749	      2.65693825	     -4.78955673	    -12.41504961	     -9.80932078	     19.08780942	     47.08466106	      0.00000000	      0.00000000	     22.47502587	    -14.47390174	     -6.30866372	     65.60403299	     47.08653906	      0.00000000	      0.00000000
     57.93057143	     -4.10870553	     -4.39882031	     -3.12737630	      0.98802356	      0.93662150	      0.38965568	     33.48532671	     -2.74631061	     -6.89653412	     44.03101010	     44.03101010	      0.87336344	    -12.14845423	      0.00523478	      5.69419774	     -3.06868829	    -11.06059644	     14.24938433	     14.24938433	     14.41477633	     -8.26662619	     -0.51809439	     -9.93933538	      7.12091478	      2.54179767	     -6.22294597	    -12.61187203	    -10.30611057	     18.74828811	     47.15134254	      0.00000000	      0.00000000	     23.15752795	    -14.75570789	     -6.82720828	     67.07658099	     47.15898226	      0.00000000	      0.00000000
     57.94314286	     -4.34600006	     -4.44420256	     -3.23742755	      0.98711829	      0.93593070	      0.39000888	     33.39502305	     -2.46004004	     -7.29888823	     39.92854774	     39.92854774	      0.88387350	    -10.72149173	      0.15517309	      5.24652675	     -3.10478081	    -11.25249987	     13.83467972	     13.83467972	     14.67196664	     -7.92407071	     -0.72752895	     -9.76108533	      7.19001026	      2.31968213	     -7.56605163	    -12.82659743	    -10.55408387	     18.47932728	     47.18076563	      0.00000000	      0.00000000	     23.78141836	    -15.07047961	     -7.13990465	     68.03477912	     47.20297898	      0.00000000	      0.00000000
     57.95571429	     -4.38385331	     -4.35846108	     -3.36642794	      0.98649768	      0.93527465	      0.39043306	     32.87340691	     -2.36405172	     -7.89563278	     35.54885195	     35.54885195	      0.50658387	     -8.80269113	     -1.08817427	      4.50397226	     -3.04523900	    -11.97482092	     13.32528222	     13.32528222	     14.90869780	     -6.82348611	     -1.43995483	     -9.90229638	      7.06589045	      2.22926523	     -9.22573603	    -12.96342038	    -11.67565461	     19.28261124	     47.26246371	      0.00000000	      0.00000000	     23.94405444	    -15.21762366	     -7.93746696	     70.61525791	     47.32074678	      0.00000000	      0.00000000
     57.96828571	     -4.42078665	     -4.36181483	     -3.39491954	      0.98592422	      0.93452115	      0.39093215	     32.16416211	     -2.11441149	     -8.55208768	     31.04056172	     31.04056172	      0.42179651	     -6.89402140	     -0.72573271	      3.83495417	     -3.03593768	    -12.17240675	     12.93635706	     12.93635706	     15.18585103	     -6.42926662	     -1.71847699	     -9.96038504	      7.08259568	      2.10094699	    -10.50928576	    -13.18063039	    -12.01976138	     19.22146916	     47.29098121	      0.00000000	      0.00000000	     24.51298541	    -15.41069463	     -8.16625248	     71.53994727	     47.36103533	      0.00000000	      0.00000000
     57.98085714	     -4.58763503	     -4.27365382	     -3.44594282	      0.98554759	      0.93336734	      0.39157051	     31.50099388	     -1.89950831	     -9.17919145	     26.60208397	     26.60208397	      0.24086146	     -4.81810985	     -0.02973031	      3.26851174	     -2.93671082	    -12.43408677	     12.50198177	     12.50198177	     15.46071634	     -5.92335299	     -2.05073565	     -9.78665191	      6.97257618	      2.02143133	    -11.72802074	    -13.23740704	    -12.30241633	     19.28734370	     47.30447361	      0.00000000	      0.00000000	     24.99262500	    -15.57353099	     -8.33592555	     72.49086431	     47.39570119	      0.00000000	      0.00000000
     57.99342857	     -4.58684923	     -4.08527971	     -3.48695716	      0.98548806	      0.93217880	      0.39227770	     30.66002734	     -1.87244295	    -10.18933802	     22.56665611	     22.56665611	      0.29523292	     -2.05759812	      1.17581018	      2.46851711	     -2.75480113	    -13.01401571	     12.01364316	     12.01364316	     15.72625483	     -4.93236485	     -2.75218561	     -9.83345201	      6.74162427	      2.01553908	    -13.18922654	    -13.22815374	    -13.02265003	     20.20861678	     47.31624254	      0.00000000	      0.00000000	     25.26582271	    -15.68376350	     -8.51253916	     74.03412588	     47.45278152	      0.00000000	      0.00000000
